# xmcd
#
# Track frame offsets:
#	150
#	50833
#	93881
#	126151
#	154492
#	158271
#	242480
#
# Disc length: 3761 seconds
# Revision: 1
# Processed by: cddbd v1.5.2PL0 Copyright (c) Steve Scherf et al.
# Submitted via: dBpowerAMP V12.0
#
DISCID=4f0eaf07
DTITLE=Hale Dwoskin - The Inner Circle Retreat 02 CD 03
DYEAR=2007
DGENRE=Speech
TTITLE0=Assignments
TTITLE1=Clean Up Your Past - Positive Experiences
TTITLE2=Wanting to Figure It Out - Direct Experiencing
TTITLE3=Identifying with Feelings - Comparing Yourself with Others
TTITLE4=Signposts on the Way to Freedom
TTITLE5=Success and Failure - Being Engaged in the Story
TTITLE6=Release on Being the Presence That You Are - Assignments
EXTD=
EXTT0=
EXTT1=
EXTT2=
EXTT3=
EXTT4=
EXTT5=
EXTT6=
PLAYORDER=
